<?xml version="1.0" standalone="no"?>
<!DOCTYPE svg PUBLIC "-//W3C//DTD SVG 20010904//EN" "http://www.w3.org/TR/2001/REC-SVG-20010904/DTD/svg10.dtd">
<svg version="1.0" xmlns="http://www.w3.org/2000/svg" width="512.000000pt" height="512.000000pt" viewBox="0 0 512.000000 512.000000" preserveAspectRatio="xMidYMid meet">
<g transform="translate(0.000000,512.000000) scale(0.100000,-0.100000)" stroke="none">
<path d="M750 5109 c-53 -10 -130 -47 -188 -89 -25 -19 -118 -132 -230 -278 -211 -277 -239 -316 -274 -387 -61 -122 -58 -6 -58 -2006 0 -1252 3 -1844 11 -1885 17 -99 82 -219 158 -295 76 -76 196 -141 295 -158 83 -15 4109 -15 4192 0 99 17 219 82 295 158 76 76 141 196 158 295 8 41 11 633 11 1885 0 1653 -2 1831 -16 1890 -18 72 -50 141 -97 211 -64 94 -477 586 -509 606 -18 11 -53 29 -78 40 -44 19 -89 19 -1835 20 -999 1 -1810 -2 -1835 -7z m3612 -412 l128 -142 -969 -3 c-533 -1 -1409 -1 -1945 0 l-976 3 72 90 c39 50 91 114 115 143 l45 52 1701 0 1702 0 127 -143z m-1232 -1852 l0 -285 497 0 498 0 -783 -782 -782 -783 -782 783 -783 782 498 0 497 0 0 285 0 285 570 0 570 0 0 -285z"/>
</g>
</svg>